<svg width="24" height="24" viewBox="0 0 24 24" fill="none" xmlns="http://www.w3.org/2000/svg">
<path fill-rule="evenodd" clip-rule="evenodd" d="M7.29303 2.29295C6.90253 2.68345 6.90253 3.31655 7.29303 3.70715L15.5858 11.9998L12.2387 15.3397C11.8482 15.7302 11.8482 16.3634 12.2387 16.7539C12.6292 17.1444 13.2624 17.1444 13.6529 16.7539L17.7071 12.7069C18.0976 12.3164 18.0976 11.6833 17.7071 11.2927L8.70723 2.29295C8.31673 1.90235 7.68353 1.90235 7.29303 2.29295Z" fill="black"/>
<path fill-rule="evenodd" clip-rule="evenodd" d="M10.1158 18.8833C9.72532 18.4927 9.09212 18.4927 8.70162 18.8833L7.28742 20.2975C6.89682 20.688 6.89682 21.3212 7.28742 21.7117C7.67792 22.1022 8.31112 22.1022 8.70162 21.7117L10.1158 20.2975C10.5063 19.907 10.5063 19.2738 10.1158 18.8833Z" fill="black"/>
</svg>
