<svg width="24" height="24" viewBox="0 0 24 24" fill="none" xmlns="http://www.w3.org/2000/svg">
<path fill-rule="evenodd" clip-rule="evenodd" d="M16.707 2.29295C17.0975 2.68345 17.0975 3.31655 16.707 3.70715L8.41417 11.9998L11.7613 15.3397C12.1518 15.7302 12.1518 16.3634 11.7613 16.7539C11.3708 17.1444 10.7376 17.1444 10.3471 16.7539L6.29287 12.7069C5.90237 12.3164 5.90237 11.6833 6.29287 11.2927L15.2928 2.29295C15.6833 1.90235 16.3165 1.90235 16.707 2.29295Z" fill="black"/>
<path fill-rule="evenodd" clip-rule="evenodd" d="M13.8842 18.8833C14.2747 18.4927 14.9079 18.4927 15.2984 18.8833L16.7126 20.2975C17.1032 20.688 17.1032 21.3212 16.7126 21.7117C16.3221 22.1022 15.6889 22.1022 15.2984 21.7117L13.8842 20.2975C13.4937 19.907 13.4937 19.2738 13.8842 18.8833Z" fill="black"/>
</svg>
