<svg width="85" height="26" viewBox="0 0 85 26" fill="none" xmlns="http://www.w3.org/2000/svg">
<g clip-path="url(#clip0_30_180)">
<path d="M12.9702 0.287354C6.2849 0.287354 0.808151 5.4366 0.28772 11.9805L7.10885 14.7977C7.68682 14.4028 8.38504 14.1715 9.1362 14.1715C9.20352 14.1715 9.27055 14.1743 9.33701 14.1775L12.3704 9.7855C12.3704 9.76452 12.3704 9.74412 12.3704 9.72343C12.3704 7.07983 14.5232 4.92909 17.1699 4.92909C19.8164 4.92909 21.9692 7.07983 21.9692 9.72343C21.9692 12.367 19.8164 14.5181 17.1699 14.5181C17.1334 14.5181 17.0972 14.5181 17.0609 14.5152L12.7346 17.5987C12.7375 17.6548 12.7389 17.712 12.7389 17.7689C12.7389 19.7535 11.123 21.3674 9.13649 21.3674C7.3928 21.3674 5.93478 20.1242 5.60452 18.4778L0.726159 16.4645C2.23653 21.8005 7.14423 25.7126 12.9702 25.7126C19.9991 25.7126 25.6968 20.0208 25.6968 13.0004C25.6968 5.97889 19.9988 0.287354 12.9702 0.287354Z" fill="white"/>
<path d="M8.26277 19.5768L6.69946 18.9316C6.97651 19.5078 7.4558 19.9903 8.09217 20.2553C9.4679 20.8278 11.0539 20.1757 11.6273 18.8003C11.9049 18.1353 11.9067 17.4011 11.6313 16.7343C11.3566 16.0673 10.8382 15.5472 10.1716 15.2696C9.51019 14.9946 8.80161 15.0046 8.17905 15.2394L9.79385 15.9064C10.8085 16.3289 11.2884 17.4927 10.8655 18.5063C10.4435 19.5202 9.27745 19.9995 8.26277 19.5768Z" fill="white"/>
<path d="M20.3673 9.72343C20.3673 7.96209 18.9329 6.52893 17.1693 6.52893C15.4061 6.52893 13.9714 7.96209 13.9714 9.72343C13.9714 11.4851 15.4061 12.9176 17.1693 12.9176C18.9329 12.9176 20.3673 11.4848 20.3673 9.72343ZM14.7723 9.71797C14.7723 8.39258 15.848 7.31836 17.1748 7.31836C18.5016 7.31836 19.5773 8.39258 19.5773 9.71797C19.5773 11.0434 18.5016 12.1176 17.1748 12.1176C15.848 12.1176 14.7723 11.0431 14.7723 9.71797Z" fill="white"/>
<path d="M39.2881 8.98549L38.4354 10.4827C37.7786 10.0244 36.8885 9.74848 36.1114 9.74848C35.2233 9.74848 34.6738 10.1157 34.6738 10.7736C34.6738 11.5728 35.65 11.7587 37.1008 12.2788C38.6604 12.8298 39.5568 13.4772 39.5568 14.9041C39.5568 16.8562 38.02 17.9526 35.8111 17.9526C34.7345 17.9526 33.4359 17.675 32.4376 17.0683L33.0596 15.4084C33.8706 15.8363 34.8407 16.0901 35.7055 16.0901C36.8712 16.0901 37.4253 15.6604 37.4253 15.0253C37.4253 14.2985 36.5804 14.0801 35.2164 13.629C33.662 13.1105 32.5849 12.4303 32.5849 10.8512C32.5849 9.07027 34.0127 8.04749 36.0671 8.04749C37.4989 8.04749 38.6497 8.50068 39.2881 8.98549Z" fill="white"/>
<path d="M43.9461 17.7884V9.9318H41.0318V8.21155H48.8596V9.9318H45.9539V17.7884H43.9461Z" fill="white"/>
<path d="M56.9344 12.0845V13.8048H53.0921V16.0524H57.5501V17.7884H51.0848V8.21155H57.5501V9.92662H53.0921V12.0845H56.9344Z" fill="white"/>
<path d="M62.0314 15.9291L61.3968 17.7887H59.2921L62.8867 8.21185H64.9078L68.604 17.7885H66.4282L65.7797 15.9288L62.0314 15.9291ZM63.8859 10.4962L62.5766 14.3307H65.2222L63.8859 10.4962Z" fill="white"/>
<path d="M75.1515 17.5094L72.5703 11.9633V17.7884H70.6477V8.21155H72.566L75.7882 15.1247L78.8958 8.21155H80.8308V17.7884H78.9084V11.9133L76.2847 17.5094H75.1515Z" fill="white"/>
<path d="M84.7123 9.41969C84.7123 10.2427 84.0949 10.7557 83.3863 10.7557C82.6752 10.7557 82.0563 10.2427 82.0563 9.41969C82.0563 8.59692 82.6752 8.0874 83.3863 8.0874C84.0952 8.0874 84.7123 8.59692 84.7123 9.41969ZM82.2793 9.41969C82.2793 10.1082 82.7758 10.5408 83.3863 10.5408C83.9945 10.5408 84.489 10.1082 84.489 9.41969C84.489 8.72912 83.9945 8.30322 83.3863 8.30322C82.7776 8.30322 82.2793 8.73429 82.2793 9.41969ZM83.4047 8.73889C83.7485 8.73889 83.8642 8.92051 83.8642 9.11679C83.8642 9.29669 83.7574 9.41739 83.6274 9.47889L83.9355 10.0557H83.6832L83.4234 9.54441H83.1556V10.0557H82.9456V8.73889H83.4047ZM83.1576 9.35158H83.3918C83.5434 9.35158 83.6329 9.25646 83.6329 9.13691C83.6329 9.01621 83.5687 8.93862 83.3912 8.93862H83.1573V9.35158H83.1576Z" fill="white"/>
</g>
<defs>
<clipPath id="clip0_30_180">
<rect width="85" height="26" fill="white"/>
</clipPath>
</defs>
</svg>
