<svg width="124" height="26" viewBox="0 0 124 26" fill="none" xmlns="http://www.w3.org/2000/svg">
<g clip-path="url(#clip0_30_182)">
<path d="M121.166 21.9492H121.408V20.3568H121.98V20.1506H120.593V20.3568H121.166V21.9492Z" fill="white"/>
<path d="M122.445 20.4878L122.926 21.9492H123.166L123.647 20.4878V21.9492H123.847V20.1506H123.556L123.054 21.6867L122.536 20.1506H122.203V21.9492H122.445V20.4878Z" fill="white"/>
<path d="M82.6865 17.6406V10.2036C82.6865 8.68642 83.3902 7.59996 84.891 7.59996H94.1485C94.2052 7.59996 94.2597 7.5434 94.2597 7.48732V6.00762C94.2597 5.99472 94.256 5.98207 94.2511 5.96991H82.9318C80.4783 6.28376 79.2798 8.00438 79.2798 10.2036V17.6403C79.2798 19.1575 78.5564 20.2442 77.0755 20.2442H67.2989C67.2435 20.2442 67.1877 20.2816 67.1877 20.3566V21.8365C67.1877 21.8978 67.2252 21.9447 67.2691 21.9603H78.369C81.2621 21.8839 82.6865 20.0254 82.6865 17.6406Z" fill="white"/>
<path d="M44.6532 21.9606H47.9036C47.9475 21.9449 47.9849 21.8981 47.9849 21.8368V17.0972C47.9849 15.58 48.8366 14.5308 50.0772 14.5308H63.4657C66.4841 14.5308 67.9471 12.6576 67.9471 10.2036C67.9471 8.00438 66.7496 6.28376 64.2949 5.96991H44.593C44.5873 5.98231 44.5777 5.99199 44.5777 6.00762V7.48732C44.5777 7.56225 44.6147 7.59996 44.6887 7.59996H62.3359C63.836 7.59996 64.5397 8.68642 64.5397 10.2036C64.5397 11.721 63.836 12.8075 62.3359 12.8075H48.3738C46.2072 12.8075 44.5777 14.6623 44.5777 17.0972V21.8368C44.5775 21.8981 44.6036 21.9447 44.6532 21.9606Z" fill="white"/>
<path d="M94.2055 20.2444H111.982C112.037 20.2444 112.074 20.2819 112.074 20.3194V21.8368C112.074 21.9117 112.131 21.9492 112.185 21.9492H115.389C115.446 21.9492 115.5 21.9117 115.5 21.8368V20.3568C115.5 20.3005 115.557 20.2444 115.611 20.2444H118.796C118.87 20.2444 118.907 20.1881 118.907 20.1323V18.6335C118.907 18.5772 118.87 18.5211 118.796 18.5211H115.611C115.557 18.5211 115.5 18.4648 115.5 18.4087V7.59996C115.5 6.71795 115.174 6.15624 114.627 5.96991H113.7C113.411 6.04459 113.097 6.17832 112.76 6.38201L93.613 18.2774C92.8724 18.7456 92.6127 19.2699 92.7982 19.6634C92.9461 20.0008 93.3709 20.2444 94.2055 20.2444ZM96.9825 18.2588L111.815 9.0236C111.908 8.94867 112.094 8.96752 112.094 9.17345V18.4087C112.094 18.465 112.037 18.5211 111.982 18.5211H97.0742C96.9458 18.5211 96.8888 18.4839 96.8716 18.4462C96.8516 18.3712 96.8886 18.3149 96.9825 18.2588Z" fill="white"/>
<path d="M12.4197 0C13.864 0.270932 15.2837 0.657977 16.6965 1.0614C17.5047 1.29759 18.3107 1.54198 19.1116 1.80224C20.3695 2.20541 21.622 2.66193 22.7614 3.34273C23.2718 3.6546 23.7619 4.00691 24.1808 4.43663C24.6347 4.88297 25.0063 5.41243 25.279 5.98853C25.7758 7.03256 25.946 8.1989 25.9963 9.34565C26.0199 10.0939 26.0184 10.8487 25.8796 11.5873C25.7642 12.2291 25.5591 12.8621 25.2179 13.4195C24.9166 13.912 24.4977 14.3378 23.9893 14.6122C23.5016 14.8767 22.9431 15.0027 22.3901 14.9915C21.5513 15.0005 20.7374 14.7313 19.9846 14.3787C19.9711 11.8597 19.9827 9.34019 19.9787 6.82142C19.9733 6.36565 20.0041 5.90517 19.9129 5.4556C19.8488 5.10726 19.7075 4.75619 19.4358 4.51974C19.2556 4.35624 19.0221 4.26395 18.7873 4.21408C18.5499 4.16867 18.2967 4.27015 18.1497 4.46193C17.9054 4.76909 17.8413 5.17698 17.8302 5.55931C17.8282 12.3031 17.8327 19.0471 17.8282 25.7903C16.0254 25.2155 14.2223 24.6401 12.4199 24.0635C12.418 16.0423 12.4187 8.02126 12.4197 0Z" fill="white"/>
<path d="M4.31626 17.0654C6.66672 16.2281 9.0147 15.3828 11.3661 14.5482C11.3698 15.4768 11.3661 16.4057 11.3676 17.3351C11.3661 17.4612 11.3743 17.5877 11.3585 17.713C9.49993 18.3759 7.64506 19.0505 5.78822 19.7177C5.53082 19.8154 5.26675 19.9263 5.06827 20.1241C4.97581 20.2169 4.90061 20.3538 4.95115 20.4868C5.01477 20.6434 5.17355 20.7285 5.32001 20.793C5.72732 20.9597 6.17261 20.9833 6.60655 21.0034C7.0903 20.9957 7.57603 20.9592 8.04992 20.854C8.3702 20.7907 8.6784 20.6821 8.98364 20.5667C9.77707 20.2777 10.5705 19.9869 11.3652 19.7008C11.3711 20.4863 11.3661 21.2723 11.3676 22.0586C11.3652 22.2156 11.3748 22.3737 11.3592 22.5302C10.3834 22.7066 9.39588 22.8265 8.40397 22.8421C6.4066 22.8875 4.40453 22.5764 2.50726 21.9482C1.88494 21.7668 1.26657 21.5254 0.747066 21.1277C0.461057 20.9049 0.205128 20.6248 0.0749447 20.2801C-0.0340347 19.9884 -0.0261448 19.6512 0.10971 19.3696C0.240633 19.0887 0.46944 18.8667 0.721424 18.6943C1.30454 18.2891 1.94756 17.9802 2.59922 17.7046C3.16064 17.4634 3.74301 17.2758 4.31626 17.0654Z" fill="white"/>
<path d="M23.2281 16.0078C23.7612 15.9457 24.2977 15.9311 24.8335 15.9117C26.5966 15.9184 28.3687 16.1393 30.0551 16.6714C30.386 16.7727 30.7065 16.9037 31.0362 17.0094C31.6237 17.2255 32.212 17.4875 32.6825 17.9125C32.9653 18.172 33.2089 18.5216 33.2123 18.9208C33.2291 19.2455 33.0829 19.5572 32.8735 19.7968C32.4751 20.2464 31.9485 20.5553 31.4196 20.8247C30.8567 21.1135 30.2516 21.2999 29.6614 21.5197C26.0586 22.8215 22.4557 24.1228 18.8534 25.4261C18.8529 24.4106 18.8544 23.3954 18.8529 22.3804C18.8584 22.3399 18.8362 22.2692 18.8931 22.2585C21.6344 21.277 24.3749 20.2928 27.1156 19.3088C27.4862 19.1694 27.8854 19.0684 28.2 18.8153C28.3287 18.7136 28.4547 18.5518 28.3916 18.3774C28.3258 18.2248 28.1685 18.1402 28.0237 18.0772C27.6134 17.9137 27.1667 17.882 26.7303 17.8698C26.0471 17.8745 25.3577 17.9594 24.708 18.1797C22.7555 18.8682 20.8064 19.5651 18.8534 20.2514C18.8537 19.1609 18.8529 18.0713 18.8539 16.9811C20.267 16.4821 21.7424 16.1797 23.2281 16.0078Z" fill="white"/>
<path d="M31.2371 23.5194C31.6634 23.4658 32.1087 23.6581 32.3641 24.006C32.643 24.3647 32.694 24.8823 32.497 25.2922C32.2983 25.7174 31.8437 26.0154 31.373 25.9998C30.9398 26.0094 30.5201 25.7556 30.3068 25.3797C30.114 25.0485 30.0911 24.6245 30.2403 24.2722C30.4079 23.8655 30.8029 23.5686 31.2371 23.5194ZM31.1444 23.7484C30.9057 23.803 30.689 23.9487 30.5465 24.1489C30.3751 24.3843 30.3103 24.696 30.3754 24.981C30.4301 25.2458 30.5966 25.4822 30.8212 25.6288C31.1671 25.8576 31.6521 25.8449 31.983 25.5936C32.3244 25.351 32.4867 24.8848 32.3693 24.4811C32.2968 24.2082 32.103 23.976 31.8589 23.8407C31.642 23.7246 31.3831 23.6911 31.1444 23.7484Z" fill="white"/>
<path d="M30.849 24.0405C31.0712 24.0392 31.2941 24.0402 31.5165 24.0397C31.6422 24.0415 31.7808 24.071 31.8698 24.168C31.9595 24.27 31.9667 24.4181 31.942 24.5459C31.9282 24.6302 31.8542 24.6801 31.8007 24.7391C31.8473 24.7806 31.9068 24.8195 31.9179 24.887C31.9435 25.016 31.9164 25.152 31.9576 25.2785C31.9834 25.3232 32.0098 25.3683 32.0118 25.4219C31.9196 25.4244 31.8276 25.4227 31.7354 25.4242C31.6733 25.277 31.7196 25.1116 31.6809 24.96C31.6656 24.8982 31.602 24.8597 31.5414 24.8617C31.391 24.8553 31.2401 24.8597 31.0902 24.8595C31.0879 25.0475 31.0956 25.2363 31.0857 25.4242C31.0073 25.4229 30.9287 25.4229 30.8503 25.4244C30.8463 24.9624 30.849 24.5017 30.849 24.0405ZM31.0902 24.2598C31.0904 24.3871 31.0904 24.5144 31.0902 24.6421C31.2245 24.6429 31.3592 24.6439 31.494 24.6426C31.5608 24.6421 31.6385 24.6295 31.6819 24.5724C31.7275 24.4997 31.7265 24.403 31.6854 24.329C31.6508 24.2707 31.5776 24.265 31.5174 24.2613C31.3749 24.2571 31.2324 24.2596 31.0902 24.2598Z" fill="white"/>
</g>
<defs>
<clipPath id="clip0_30_182">
<rect width="124" height="26" fill="white"/>
</clipPath>
</defs>
</svg>
