<svg width="111" height="19" viewBox="0 0 111 19" fill="none" xmlns="http://www.w3.org/2000/svg">
<g clip-path="url(#clip0_30_181)">
<path d="M8.55397 0.405972C7.85901 0.492227 6.96468 0.69924 6.40074 0.917754C5.77414 1.15352 5.00513 1.53304 5.00513 1.6078C5.00513 1.6538 5.14184 1.69405 5.364 1.71706C6.16149 1.80906 7.64255 2.43585 8.9812 3.23515C9.30589 3.43066 9.62489 3.59167 9.68186 3.59167C9.74452 3.59167 10.0578 3.43066 10.3768 3.23515C11.1401 2.76937 12.399 2.15408 12.9801 1.95857C13.2421 1.87232 13.6522 1.77456 13.8972 1.73431C14.1934 1.69405 14.3472 1.6423 14.3472 1.5963C14.3472 1.42954 13.0199 0.860251 12.0971 0.630236C10.8838 0.325467 9.7673 0.256462 8.55397 0.405972Z" fill="white"/>
<path d="M3.04558 3.08567C1.52465 4.64977 0.698672 6.34613 0.41955 8.51977C0.288533 9.53183 0.322711 10.3944 0.539174 11.4985C0.74994 12.5623 1.23413 13.7584 1.80377 14.6037C2.17973 15.1672 2.24239 15.1614 2.28796 14.5577C2.46455 12.292 4.20764 9.18106 7.1071 5.98386C7.35774 5.70209 7.56851 5.43757 7.56851 5.40307C7.56851 5.32256 6.70266 4.47151 6.06466 3.91947C5.21021 3.18343 4.09941 2.49913 3.77472 2.49913C3.6494 2.49913 3.4899 2.63139 3.04558 3.08567Z" fill="white"/>
<path d="M15.1618 2.66587C14.4384 3.01665 13.4643 3.75269 12.5244 4.667C12.1484 5.02927 11.8408 5.36855 11.8408 5.41455C11.8408 5.46055 12.1199 5.81132 12.4617 6.1966C14.9226 8.96252 16.4834 11.6019 16.9676 13.8101C17.0302 14.0919 17.0815 14.4771 17.0815 14.6726C17.0815 14.9947 17.0929 15.0349 17.1897 15.0349C17.3207 15.0349 17.8391 14.2299 18.1638 13.5111C18.8246 12.0792 19.0581 10.8889 19.0012 9.24429C18.9442 7.34092 18.4315 5.78257 17.3777 4.28748C16.8935 3.59743 15.8283 2.49911 15.646 2.49911C15.572 2.49911 15.3555 2.57387 15.1618 2.66587Z" fill="white"/>
<path d="M9.04956 7.74346C7.69952 8.92804 5.91655 10.7912 4.9026 12.085C3.82598 13.4536 2.66962 15.3052 2.66962 15.6502C2.66962 15.7595 3.26774 16.3748 3.80889 16.829C5.71148 18.4161 8.47423 19.1522 11.0718 18.7669C13.0769 18.4679 14.8997 17.5478 16.415 16.0757C16.6485 15.8515 16.6827 15.7882 16.6827 15.5812C16.677 14.5231 14.6206 11.901 11.2199 8.61752C10.2971 7.72621 9.7844 7.27193 9.70465 7.27193C9.63629 7.27193 9.35717 7.4732 9.04956 7.74346Z" fill="white"/>
<path d="M89.2649 5.80529L97.5785 17.1068L99.1423 17.1081V3.04892H97.5798V14.5966L89.0957 3.04031L87.705 3.03766V17.0975H89.2649V5.80529Z" fill="white"/>
<path d="M79.5936 2.7226C75.6503 2.7226 72.894 5.74631 72.894 10.0748C72.894 14.4104 75.6503 17.4335 79.5936 17.4335C83.533 17.4335 86.2799 14.4104 86.2799 10.0748C86.2799 5.74631 83.533 2.7226 79.5936 2.7226ZM79.5936 15.9438C76.5902 15.9438 74.4843 13.5303 74.4843 10.0748C74.4843 6.62241 76.5902 4.2086 79.5936 4.2086C82.5931 4.2086 84.6857 6.62241 84.6857 10.0748C84.6857 13.5303 82.5931 15.9438 79.5936 15.9438Z" fill="white"/>
<path d="M110.715 4.41498V3.03961H100.896V17.1094H110.811V15.733H102.47V10.5304H110.19V9.15404H102.47V4.41498H110.715Z" fill="white"/>
<path d="M60.0029 3.04858L64.016 8.51393L68.0254 3.04858H69.8695L64.9492 9.74881L70.3428 17.1213H68.4987L64.016 11.0191L59.5356 17.1213H57.6889L63.0801 9.74881L58.1575 3.04858H60.0029Z" fill="white"/>
<path d="M43.8185 10.2813C43.5257 10.0311 43.2078 9.83762 42.8991 9.69451C43.9177 9.14018 44.5859 8.09253 44.5859 6.87714C44.5859 5.97661 44.2548 3.04926 40.0232 3.04926H34.3237V9.11568H32.4248C32.1776 9.4374 31.6191 10.2101 31.4056 10.5278H34.3237V17.12L40.0232 17.1207C43.1106 17.1207 45.0294 15.5482 45.0294 13.0128C45.0294 11.9048 44.6117 10.9628 43.8185 10.2813ZM35.8995 4.51707H40.0232C41.1403 4.51707 43.0088 4.79576 43.0088 6.75358C43.0088 8.23368 41.9196 9.11568 40.0232 9.11568H35.8995V4.51707ZM40.0233 15.6529H35.8995V10.5298H40.0233C41.5871 10.5298 43.4576 10.9628 43.4576 12.9823C43.4576 15.3043 41.3069 15.6529 40.0233 15.6529Z" fill="white"/>
<path d="M52.4428 2.72351C48.5008 2.72351 45.7452 5.74729 45.7452 10.0758C45.7452 14.411 48.5008 17.4328 52.4428 17.4328C56.3822 17.4328 59.1291 14.411 59.1291 10.0758C59.1291 5.74729 56.3822 2.72351 52.4428 2.72351ZM52.4428 15.9444C49.4394 15.9444 47.3355 13.531 47.3355 10.0758C47.3355 6.62333 49.4394 4.2106 52.4428 4.2106C55.4416 4.2106 57.5349 6.62333 57.5349 10.0758C57.5349 13.531 55.4416 15.9444 52.4428 15.9444Z" fill="white"/>
<path d="M21.3774 3.04889L26.2976 9.74846L20.9028 17.12H22.7509L27.2296 11.0194L31.7109 17.12H33.557L28.1616 9.74846L33.0851 3.04889H31.2403L27.227 8.51556L23.2169 3.04889H21.3774Z" fill="white"/>
</g>
<defs>
<clipPath id="clip0_30_181">
<rect width="111" height="19" fill="white"/>
</clipPath>
</defs>
</svg>
